<?xml version="1.0" standalone="no"?>
<!DOCTYPE svg PUBLIC "-//W3C//DTD SVG 20010904//EN"
 "http://www.w3.org/TR/2001/REC-SVG-20010904/DTD/svg10.dtd">
<svg version="1.0" xmlns="http://www.w3.org/2000/svg"
 width="2048.000000pt" height="1536.000000pt" viewBox="0 0 2048.000000 1536.000000"
 preserveAspectRatio="xMidYMid meet">

<g transform="translate(0.000000,1536.000000) scale(0.100000,-0.100000)"
fill="#000000" stroke="none">
<path d="M4370 8948 c0 -1651 2 -2999 5 -2996 3 2 414 652 915 1443 l910 1439
0 1558 0 1558 -915 0 -915 0 0 -3002z"/>
<path d="M7765 10775 c-7 -5 -111 -170 -231 -365 -220 -360 -451 -736 -1056
-1720 -546 -888 -911 -1482 -1143 -1860 -120 -195 -405 -659 -633 -1030 -228
-371 -536 -873 -685 -1115 -149 -242 -382 -622 -519 -844 -137 -222 -246 -407
-242 -410 3 -3 533 -8 1178 -9 l1173 -4 110 179 c101 163 449 729 998 1623
117 190 364 593 550 895 331 539 541 881 1140 1855 164 267 490 798 725 1180
235 382 552 898 704 1145 l277 450 -113 3 c-579 15 -2223 35 -2233 27z"/>
<path d="M10523 10746 c-15 -22 -188 -306 -386 -631 -198 -324 -489 -801 -647
-1060 -158 -258 -457 -749 -665 -1090 -445 -730 -597 -979 -1133 -1858 -221
-361 -402 -659 -402 -662 0 -3 528 -5 1174 -5 1099 0 1174 2 1188 18 8 9 55
82 103 162 78 128 472 772 1110 1815 337 551 821 1341 1035 1690 112 182 258
420 325 530 67 110 244 400 394 644 149 244 270 445 269 447 -2 1 -462 9
-1023 18 -561 9 -1087 17 -1168 20 l-148 4 -26 -42z"/>
<path d="M11120 6350 l0 -890 195 0 195 0 0 375 0 375 385 0 385 0 0 -375 0
-375 195 0 195 0 0 23 c0 18 0 1727 0 1750 0 4 -88 7 -195 7 l-195 0 0 -345 0
-345 -385 0 -385 0 0 345 0 345 -195 0 -195 0 0 -890z"/>
<path d="M13000 6350 l0 -890 565 0 565 0 0 170 0 170 -370 0 -370 0 0 210 0
210 305 0 305 0 0 165 0 165 -305 0 -305 0 0 175 0 175 355 0 355 0 0 170 0
170 -550 0 -550 0 0 -890z"/>
<path d="M14380 6350 l0 -890 195 0 195 0 0 350 0 351 92 -3 91 -3 221 -347
221 -347 223 -1 c122 0 222 2 222 5 0 3 -107 166 -238 363 -131 196 -241 362
-245 368 -4 7 22 25 67 48 171 84 268 226 283 416 17 225 -77 397 -268 488
-164 78 -276 92 -726 92 l-333 0 0 -890z m680 541 c191 -25 255 -80 255 -217
0 -93 -31 -144 -111 -181 -63 -29 -201 -45 -339 -41 l-90 3 -3 210 c-1 115 0
215 2 222 6 15 182 18 286 4z"/>
<path d="M15990 6350 l0 -890 565 0 565 0 0 170 0 170 -370 0 -370 0 0 210 0
210 305 0 305 0 0 165 0 165 -305 0 -305 0 0 175 0 175 355 0 355 0 0 170 0
170 -550 0 -550 0 0 -890z"/>
<path d="M8605 4934 c-11 -2 -45 -9 -75 -15 -112 -22 -246 -96 -333 -183 -259
-259 -278 -703 -42 -989 213 -258 610 -324 900 -149 321 193 435 626 255 970
-98 188 -277 319 -490 358 -71 13 -171 16 -215 8z m210 -119 c345 -73 545
-443 431 -800 -44 -139 -152 -272 -273 -338 -162 -87 -388 -88 -552 -2 -131
69 -227 181 -278 325 -35 99 -44 280 -18 380 56 216 231 390 438 435 82 18
167 18 252 0z"/>
<path d="M6750 4916 c0 -2 122 -177 270 -387 l270 -382 0 -314 0 -313 55 0 55
0 0 313 0 313 256 365 c141 200 263 374 272 387 l14 22 -65 0 -66 0 -229 -327
c-126 -181 -233 -326 -238 -324 -5 2 -110 148 -234 325 l-225 321 -68 3 c-37
2 -67 1 -67 -2z"/>
<path d="M9647 4913 c-10 -10 -8 -676 3 -839 5 -77 16 -169 25 -204 63 -242
239 -369 511 -370 105 0 220 26 295 66 67 37 144 121 180 197 56 121 61 167
66 685 l5 473 -58 -3 -59 -3 -6 -490 c-4 -433 -7 -496 -23 -545 -38 -119 -111
-201 -215 -242 -47 -19 -75 -22 -181 -22 -147 0 -208 18 -284 85 -60 53 -91
107 -118 205 -20 75 -22 106 -26 547 l-4 467 -52 0 c-29 0 -56 -3 -59 -7z"/>
<path d="M11060 4221 l0 -701 55 0 55 0 1 298 c1 163 2 304 3 312 1 12 26 15
145 18 94 2 148 -1 157 -9 7 -6 113 -147 234 -315 l222 -304 70 0 c53 0 67 3
62 13 -5 6 -109 149 -231 316 l-224 304 73 19 c130 33 220 104 269 213 18 40
23 69 23 145 1 83 -2 102 -25 151 -36 75 -86 129 -157 167 -103 55 -159 63
-459 69 l-273 5 0 -701z m600 565 c162 -50 239 -199 184 -359 -20 -58 -95
-128 -162 -152 -59 -20 -262 -37 -401 -33 l-106 3 -3 269 c-1 148 0 276 3 284
8 22 408 11 485 -12z"/>
<path d="M12650 4865 l0 -55 240 0 240 0 0 -645 0 -645 60 0 60 0 0 645 0 645
240 0 240 0 0 55 0 55 -540 0 -540 0 0 -55z"/>
<path d="M13960 4220 l0 -700 395 0 395 0 0 55 0 55 -335 0 -335 0 0 280 0
280 290 0 290 0 0 55 0 55 -290 0 -290 0 0 255 0 255 325 0 325 0 0 55 0 55
-385 0 -385 0 0 -700z"/>
<path d="M14958 4893 c99 -141 432 -614 437 -623 3 -5 -111 -176 -255 -378
l-261 -367 62 -3 c42 -2 66 1 74 10 7 7 111 153 230 323 120 171 221 314 225
318 4 4 46 -50 95 -120 48 -70 153 -219 232 -330 l144 -203 70 0 71 0 -35 48
c-145 200 -478 673 -483 685 -3 9 86 144 220 335 124 177 226 324 226 327 0 3
-28 5 -63 5 l-63 0 -78 -112 c-43 -62 -133 -191 -199 -286 -66 -95 -123 -171
-128 -170 -4 2 -95 129 -202 283 l-194 280 -72 3 -73 3 20 -28z"/>
<path d="M16160 4865 l0 -55 240 0 240 0 0 -645 0 -645 60 0 60 0 0 645 0 645
240 0 240 0 0 55 0 55 -540 0 -540 0 0 -55z"/>
</g>
</svg>
